<svg xmlns="http://www.w3.org/2000/svg" version="1.1" xmlns:xlink="http://www.w3.org/1999/xlink" width="1500" height="1500" viewBox="0 0 1500 1500"><rect width="1500" height="1500" x="0" y="0" id="background" stroke="transparent" fill="#f8f8f8"></rect><svg xml:space="preserve" width="1000" height="1000" data-version="2" data-id="lg_SAhZb4QgTGrc3hHmXn" viewBox="0 0 548 134" x="250" y="250"><rect width="100%" height="100%" fill="transparent"></rect><path fill="#919191" d="M40.428 103.773c9.585-4.641 23.357-14.483 37.896-29.003 10.918-10.904 20.166-22.369 26.04-32.283a72.454 72.454 0 0 0 3.179-5.94c-8.772-10.977-22.26-18.028-37.37-18.028-26.376 0-47.834 21.458-47.834 47.834 0 15.14 7.078 28.648 18.09 37.42m30.231 10.4c25.994-.26 47.084-21.356 47.335-47.355-6.272 8.521-13.712 17.17-22.087 25.533-8.268 8.26-16.819 15.61-25.248 21.823"></path><path fill="#919191" d="M130.67 5.716c-7.93-7.921-26.1-3.689-46.968 9.215 6.203 1.51 11.958 4.073 17.069 7.645 5.762-2.363 11.139-2.353 13.255-.239 3.076 3.07 1.69 10.057-3.064 19.069l-.036-.062c-5.566 10.571-15.787 23.944-28.947 37.088-13.005 12.986-26.235 23.108-36.762 28.711l.033.021c-9.16 4.869-16.266 6.309-19.372 3.205-2.441-2.437-2.082-7.348.689-14.02-3.581-5.138-6.153-10.885-7.648-17.055-12.987 20.902-17.5 39.892-9.684 47.698 12.353 12.336 49.555-4.81 83.087-38.3 33.533-33.487 50.703-70.64 38.349-82.976"></path><rect width="65.39" height="48.18" x="-32.7" y="-24.09" fill="#ffffff" rx="0" ry="0" transform="translate(117.89 102.91)"></rect><path fill="#919191" d="M88.995 126.276v-36.6q0-2.01.97-3.69.98-1.68 2.66-2.65 1.67-.98 3.69-.98h29.28q2.01 0 3.69.98 1.68.97 2.65 2.65.98 1.68.98 3.69v36.6h-4.94v-16.04h-34.04v16.04zm4.94-20.98h34.04v-15.62q0-.97-.71-1.68-.7-.7-1.67-.7h-29.28q-.98 0-1.68.7-.7.71-.7 1.68z"></path><rect width="43.92" height="43.92" x="-21.96" y="-21.96" fill="none" rx="0" ry="0" transform="translate(111.45 104.82)"></rect><path fill="#919191" d="M144.195 126.276q-2.01 0-3.69-.97-1.68-.98-2.65-2.66-.98-1.67-.98-3.69v-1.71h4.94v1.71q0 .98.7 1.68.71.7 1.68.7h29.28q.98 0 1.68-.7t.7-1.68v-9.82q0-.97-.7-1.65-.7-.67-1.68-.67h-29.28q-2.01 0-3.69-1-1.68-1.01-2.65-2.66-.98-1.64-.98-3.66v-9.82q0-2.01.98-3.69.97-1.68 2.65-2.65 1.68-.98 3.69-.98h29.28q2.02 0 3.69.98 1.68.97 2.66 2.65.97 1.68.97 3.69v1.71h-4.94v-1.71q0-.97-.7-1.68-.7-.7-1.68-.7h-29.28q-.97 0-1.68.7-.7.71-.7 1.68v9.82q0 .98.7 1.65.71.67 1.68.67h29.28q2.02 0 3.69 1.01 1.68 1 2.66 2.65.97 1.65.97 3.66v9.82q0 2.02-.97 3.69-.98 1.68-2.66 2.66-1.67.97-3.69.97Z"></path><rect width="43.92" height="43.92" x="-21.96" y="-21.96" fill="none" rx="0" ry="0" transform="translate(159.34 104.82)"></rect><path fill="#919191" d="M201.965 126.276v-38.98h-19.52v-4.94h43.92v4.94h-19.46v38.98Z"></path><rect width="43.92" height="43.92" x="-21.96" y="-21.96" fill="none" rx="0" ry="0" transform="translate(204.9 104.82)"></rect><path fill="#919191" d="m265.345 126.276-14.34-17.08h6.47l14.4 17.02v.06Zm-37.09 0v-43.86h36.6q2.01 0 3.69 1.01 1.68 1.01 2.65 2.65.98 1.65.98 3.66v12.87q0 2.02-.98 3.66-.97 1.65-2.65 2.66-1.68 1-3.69 1h-31.66v16.35Zm7.32-21.35h29.28q.98 0 1.68-.67t.7-1.65v-12.87q0-.97-.7-1.67-.7-.71-1.68-.71h-29.28q-.98 0-1.68.71-.7.7-.7 1.67v12.87q0 .98.7 1.65.7.67 1.68.67"></path><rect width="43.92" height="43.86" x="-21.96" y="-21.93" fill="none" rx="0" ry="0" transform="translate(250.72 104.85)"></rect><path fill="#919191" d="M283.095 126.276q-2.01 0-3.69-.97-1.68-.98-2.65-2.66-.98-1.67-.98-3.69v-29.28q0-2.01.98-3.69.97-1.68 2.65-2.65 1.68-.98 3.69-.98h29.28q2.01 0 3.69.98 1.68.97 2.65 2.65.98 1.68.98 3.69v29.28q0 2.02-.98 3.69-.97 1.68-2.65 2.66-1.68.97-3.69.97Zm0-4.94h29.28q.98 0 1.68-.7t.7-1.68v-29.28q0-.97-.7-1.68-.7-.7-1.68-.7h-29.28q-.98 0-1.68.7-.7.71-.7 1.68v29.28q0 .98.7 1.68t1.68.7"></path><rect width="43.92" height="43.92" x="-21.96" y="-21.96" fill="none" rx="0" ry="0" transform="translate(298.24 104.82)"></rect><path fill="#919191" d="m361.785 126.276-25.44-43.92h5.8l22.51 39.1 22.44-39.1h5.8l-25.38 43.92Z"></path><rect width="56.55" height="43.92" x="-28.27" y="-21.96" fill="none" rx="0" ry="0" transform="translate(365.12 104.82)"></rect><path fill="#919191" d="M396.735 126.276v-43.92h5v43.92Z"></path><rect width="5" height="43.92" x="-2.5" y="-21.96" fill="none" rx="0" ry="0" transform="translate(399.74 104.82)"></rect><path fill="#919191" d="M413.515 126.276q-2.02 0-3.69-.97-1.68-.98-2.66-2.66-.97-1.67-.97-3.69v-1.71h4.94v1.71q0 .98.7 1.68t1.68.7h29.28q.97 0 1.67-.7.71-.7.71-1.68v-9.82q0-.97-.71-1.65-.7-.67-1.67-.67h-29.28q-2.02 0-3.69-1-1.68-1.01-2.66-2.66-.97-1.64-.97-3.66v-9.82q0-2.01.97-3.69.98-1.68 2.66-2.65 1.67-.98 3.69-.98h29.28q2.01 0 3.69.98 1.68.97 2.65 2.65.98 1.68.98 3.69v1.71h-4.94v-1.71q0-.97-.71-1.68-.7-.7-1.67-.7h-29.28q-.98 0-1.68.7-.7.71-.7 1.68v9.82q0 .98.7 1.65.7.67 1.68.67h29.28q2.01 0 3.69 1.01 1.68 1 2.65 2.65.98 1.65.98 3.66v9.82q0 2.02-.98 3.69-.97 1.68-2.65 2.66-1.68.97-3.69.97Z"></path><rect width="43.92" height="43.92" x="-21.96" y="-21.96" fill="none" rx="0" ry="0" transform="translate(428.65 104.82)"></rect><path fill="#919191" d="M471.275 126.276v-38.98h-19.52v-4.94h43.92v4.94h-19.45v38.98Z"></path><rect width="43.92" height="43.92" x="-21.96" y="-21.96" fill="none" rx="0" ry="0" transform="translate(474.21 104.82)"></rect><path fill="#919191" d="M497.695 126.276v-36.6q0-2.01.97-3.69.98-1.68 2.66-2.65 1.67-.98 3.69-.98h29.28q2.01 0 3.69.98 1.68.97 2.65 2.65.98 1.68.98 3.69v36.6h-4.94v-16.04h-34.04v16.04zm4.94-20.98h34.04v-15.62q0-.97-.71-1.68-.7-.7-1.67-.7h-29.28q-.98 0-1.68.7-.7.71-.7 1.68z"></path><rect width="43.92" height="43.92" x="-21.96" y="-21.96" fill="none" rx="0" ry="0" transform="translate(520.15 104.82)"></rect></svg></svg>